<svg xmlns="http://www.w3.org/2000/svg" viewBox="0 0 1024 1024">
  <defs>
    <linearGradient id="bg" x1="160" y1="80" x2="864" y2="944" gradientUnits="userSpaceOnUse">
      <stop offset="0" stop-color="#24170f"/>
      <stop offset=".52" stop-color="#0b0907"/>
      <stop offset="1" stop-color="#1a0d08"/>
    </linearGradient>
    <linearGradient id="gold" x1="276" y1="156" x2="748" y2="826" gradientUnits="userSpaceOnUse">
      <stop offset="0" stop-color="#fff0bd"/>
      <stop offset=".38" stop-color="#f0c47b"/>
      <stop offset="1" stop-color="#b66c35"/>
    </linearGradient>
    <radialGradient id="glow" cx="50%" cy="44%" r="48%">
      <stop offset="0" stop-color="#f0c47b" stop-opacity=".34"/>
      <stop offset=".68" stop-color="#d89b57" stop-opacity=".08"/>
      <stop offset="1" stop-color="#d89b57" stop-opacity="0"/>
    </radialGradient>
    <filter id="shadow" x="-20%" y="-20%" width="140%" height="150%">
      <feDropShadow dx="0" dy="24" stdDeviation="24" flood-color="#000000" flood-opacity=".42"/>
    </filter>
  </defs>
  <rect width="1024" height="1024" rx="224" fill="url(#bg)"/>
  <rect x="58" y="58" width="908" height="908" rx="186" fill="none" stroke="#f0c47b" stroke-opacity=".24" stroke-width="12"/>
  <rect x="92" y="92" width="840" height="840" rx="154" fill="none" stroke="#d89b57" stroke-opacity=".13" stroke-width="4"/>
  <circle cx="512" cy="458" r="318" fill="url(#glow)"/>
  <g filter="url(#shadow)">
    <path d="M286 268h452l-72 226c-23 72-84 122-154 122s-131-50-154-122l-72-226Z" fill="none" stroke="url(#gold)" stroke-width="42" stroke-linejoin="round"/>
    <path d="M334 330h356l-32 96H366l-32-96Z" fill="url(#gold)" opacity=".22"/>
    <path d="M372 434h280" stroke="#f0c47b" stroke-width="32" stroke-linecap="round" opacity=".9"/>
    <path d="M512 616v126" stroke="url(#gold)" stroke-width="42" stroke-linecap="round"/>
    <path d="M390 790h244" stroke="url(#gold)" stroke-width="46" stroke-linecap="round"/>
  </g>
  <path d="M240 742c67 74 161 116 272 116s205-42 272-116" fill="none" stroke="#f0c47b" stroke-opacity=".22" stroke-width="8" stroke-linecap="round"/>
  <path d="M328 190h368" stroke="#f0c47b" stroke-opacity=".22" stroke-width="8" stroke-linecap="round"/>
</svg>
