<svg xmlns="http://www.w3.org/2000/svg" viewBox="0 0 1024 1024">
  <defs>
    <linearGradient id="bg" x1="120" y1="80" x2="900" y2="960" gradientUnits="userSpaceOnUse">
      <stop offset="0" stop-color="#1e120c"/>
      <stop offset=".48" stop-color="#060403"/>
      <stop offset="1" stop-color="#210d07"/>
    </linearGradient>
    <radialGradient id="barGlow" cx="58%" cy="50%" r="54%">
      <stop offset="0" stop-color="#d7772e" stop-opacity=".28"/>
      <stop offset=".56" stop-color="#7b3218" stop-opacity=".09"/>
      <stop offset="1" stop-color="#000000" stop-opacity="0"/>
    </radialGradient>
    <linearGradient id="wood" x1="150" y1="700" x2="872" y2="876" gradientUnits="userSpaceOnUse">
      <stop offset="0" stop-color="#170905"/>
      <stop offset=".18" stop-color="#5e2d1b"/>
      <stop offset=".55" stop-color="#a36237"/>
      <stop offset="1" stop-color="#1b0905"/>
    </linearGradient>
    <linearGradient id="glass" x1="294" y1="270" x2="730" y2="790" gradientUnits="userSpaceOnUse">
      <stop offset="0" stop-color="#fff7db"/>
      <stop offset=".32" stop-color="#e9bf7a"/>
      <stop offset=".7" stop-color="#9b6841"/>
      <stop offset="1" stop-color="#fff1c5"/>
    </linearGradient>
    <linearGradient id="drink" x1="356" y1="448" x2="674" y2="710" gradientUnits="userSpaceOnUse">
      <stop offset="0" stop-color="#ffd27a"/>
      <stop offset=".45" stop-color="#c95f21"/>
      <stop offset="1" stop-color="#5b1c0d"/>
    </linearGradient>
    <filter id="drop" x="-20%" y="-20%" width="140%" height="150%">
      <feDropShadow dx="0" dy="32" stdDeviation="30" flood-color="#000000" flood-opacity=".56"/>
    </filter>
  </defs>
  <rect width="1024" height="1024" rx="224" fill="url(#bg)"/>
  <circle cx="536" cy="500" r="340" fill="url(#barGlow)"/>
  <g filter="url(#drop)">
    <path d="M140 720c188-70 558-82 744-18 46 16 52 84 8 110-168 100-594 102-760 0-42-26-34-74 8-92Z" fill="url(#wood)"/>
    <path d="M206 755c150-32 444-40 632-12" stroke="#d69a58" stroke-width="12" stroke-linecap="round" opacity=".34"/>
    <path d="M226 812c76-38 160-42 258-16" stroke="#120604" stroke-width="16" stroke-linecap="round" opacity=".68"/>
    <path d="M582 792c74-38 148-36 226-8" stroke="#160704" stroke-width="14" stroke-linecap="round" opacity=".62"/>
    <path d="M328 324h368l-62 350c-10 62-56 102-122 102s-112-40-122-102L328 324Z" fill="#090605" stroke="url(#glass)" stroke-width="34" stroke-linejoin="round"/>
    <path d="M378 476h268l-30 172c-8 46-48 78-104 78s-96-32-104-78l-30-172Z" fill="url(#drink)"/>
    <path d="M398 514c66 20 164 20 228 0" stroke="#ffe0a1" stroke-width="20" stroke-linecap="round" opacity=".78"/>
    <path d="M396 666h232" stroke="#fff2c9" stroke-width="24" stroke-linecap="round" opacity=".72"/>
    <path d="M418 548l48-44 60 34-40 52Z" fill="#fff0bf" opacity=".7" stroke="#fff8de" stroke-width="8" stroke-linejoin="round"/>
    <path d="M546 514l62-34 44 48-54 46Z" fill="#ffe0a1" opacity=".52" stroke="#fff5d7" stroke-width="8" stroke-linejoin="round"/>
    <path d="M360 622l64 54M600 624l64-54M420 700l38-56M566 702l-36-58" stroke="#fff1c7" stroke-width="13" stroke-linecap="round" opacity=".56"/>
    <path d="M622 222 468 596" stroke="#4b190c" stroke-width="52" stroke-linecap="round"/>
    <path d="M622 222 468 596" stroke="#ca7134" stroke-width="26" stroke-linecap="round"/>
    <path d="M592 294 538 274M564 364 510 344M536 434 482 414" stroke="#2a0d06" stroke-width="10" stroke-linecap="round"/>
  </g>
</svg>
