<svg xmlns="http://www.w3.org/2000/svg" viewBox="0 0 1024 1024">
  <defs>
    <linearGradient id="bg" x1="122" y1="116" x2="902" y2="914" gradientUnits="userSpaceOnUse">
      <stop offset="0" stop-color="#20130d"/>
      <stop offset=".56" stop-color="#090806"/>
      <stop offset="1" stop-color="#28130b"/>
    </linearGradient>
    <linearGradient id="steelGold" x1="278" y1="168" x2="756" y2="878" gradientUnits="userSpaceOnUse">
      <stop offset="0" stop-color="#fff3c6"/>
      <stop offset=".3" stop-color="#f0c47b"/>
      <stop offset=".7" stop-color="#d89b57"/>
      <stop offset="1" stop-color="#7f4124"/>
    </linearGradient>
    <radialGradient id="halo" cx="52%" cy="42%" r="50%">
      <stop offset="0" stop-color="#d89b57" stop-opacity=".28"/>
      <stop offset="1" stop-color="#d89b57" stop-opacity="0"/>
    </radialGradient>
    <filter id="shadow" x="-20%" y="-20%" width="140%" height="150%">
      <feDropShadow dx="0" dy="28" stdDeviation="28" flood-color="#000000" flood-opacity=".45"/>
    </filter>
  </defs>
  <rect width="1024" height="1024" rx="224" fill="url(#bg)"/>
  <circle cx="512" cy="512" r="370" fill="url(#halo)"/>
  <path d="M193 831 831 193" stroke="#f0c47b" stroke-opacity=".11" stroke-width="12" stroke-linecap="round"/>
  <g filter="url(#shadow)">
    <path d="M395 248h234l42 112H353l42-112Z" fill="url(#steelGold)"/>
    <path d="M355 360h314l-52 378c-8 56-50 96-105 96s-97-40-105-96L355 360Z" fill="none" stroke="url(#steelGold)" stroke-width="42" stroke-linejoin="round"/>
    <path d="M398 454h228" stroke="#f9dca0" stroke-width="28" stroke-linecap="round" opacity=".86"/>
    <path d="M420 566h184" stroke="#d89b57" stroke-width="24" stroke-linecap="round" opacity=".72"/>
    <circle cx="675" cy="258" r="30" fill="#f0c47b"/>
    <circle cx="748" cy="315" r="18" fill="#d89b57" opacity=".8"/>
  </g>
  <path d="M272 704c30 70 90 134 180 166" fill="none" stroke="#f0c47b" stroke-opacity=".18" stroke-width="10" stroke-linecap="round"/>
  <path d="M752 334c32 46 45 100 39 160" fill="none" stroke="#f0c47b" stroke-opacity=".16" stroke-width="10" stroke-linecap="round"/>
</svg>
