<svg xmlns="http://www.w3.org/2000/svg" viewBox="0 0 1024 1024">
  <defs>
    <linearGradient id="bg" x1="104" y1="82" x2="920" y2="944" gradientUnits="userSpaceOnUse">
      <stop offset="0" stop-color="#130c08"/>
      <stop offset=".55" stop-color="#050403"/>
      <stop offset="1" stop-color="#241007"/>
    </linearGradient>
    <linearGradient id="glass" x1="334" y1="238" x2="702" y2="776" gradientUnits="userSpaceOnUse">
      <stop offset="0" stop-color="#fff8e3"/>
      <stop offset=".46" stop-color="#f4d08d"/>
      <stop offset="1" stop-color="#7b4528"/>
    </linearGradient>
    <linearGradient id="amber" x1="368" y1="430" x2="666" y2="722" gradientUnits="userSpaceOnUse">
      <stop offset="0" stop-color="#ffe091"/>
      <stop offset=".44" stop-color="#ef7f24"/>
      <stop offset="1" stop-color="#6d2812"/>
    </linearGradient>
    <linearGradient id="wood" x1="242" y1="724" x2="796" y2="838" gradientUnits="userSpaceOnUse">
      <stop offset="0" stop-color="#120805"/>
      <stop offset=".25" stop-color="#6d3520"/>
      <stop offset=".7" stop-color="#a66436"/>
      <stop offset="1" stop-color="#180906"/>
    </linearGradient>
    <filter id="shadow" x="-20%" y="-20%" width="140%" height="150%">
      <feDropShadow dx="0" dy="26" stdDeviation="22" flood-color="#000000" flood-opacity=".5"/>
    </filter>
  </defs>
  <rect width="1024" height="1024" rx="224" fill="url(#bg)"/>
  <circle cx="512" cy="486" r="284" fill="#ff9e37" opacity=".13"/>
  <g filter="url(#shadow)">
    <path d="M248 748c130-42 394-44 532-4 34 10 40 58 8 76-130 72-420 72-552 0-32-18-22-61 12-72Z" fill="url(#wood)"/>
    <path d="M336 788c40-18 94-18 152-4M566 762c76-16 140-10 190 14" stroke="#1a0a06" stroke-width="12" stroke-linecap="round" opacity=".78"/>
    <path d="M356 324h312l-52 348c-8 56-46 90-104 90s-96-34-104-90L356 324Z" fill="#080604" stroke="url(#glass)" stroke-width="44" stroke-linejoin="round"/>
    <path d="M396 498h232l-25 148c-8 46-42 74-91 74s-83-28-91-74l-25-148Z" fill="url(#amber)"/>
    <path d="M412 530c58 16 142 16 200 0" stroke="#fff0b6" stroke-width="24" stroke-linecap="round" opacity=".82"/>
    <path d="M392 688h240" stroke="#fff7da" stroke-width="38" stroke-linecap="round" opacity=".75"/>
    <path d="M626 250 458 630" stroke="#4c1b0e" stroke-width="48" stroke-linecap="round"/>
    <path d="M626 250 458 630" stroke="#e08a42" stroke-width="22" stroke-linecap="round"/>
    <path d="M596 324 548 306M566 392 518 374M536 460 488 442" stroke="#2a0e07" stroke-width="10" stroke-linecap="round"/>
  </g>
  <path d="M764 252c42 48 68 111 68 180" fill="none" stroke="#f0c47b" stroke-width="8" stroke-linecap="round" opacity=".18"/>
</svg>
